<svg xmlns="http://www.w3.org/2000/svg" id="Layer_2" viewBox="0 0 305.59321 175.53173"><defs><style>.cls-1{fill:#231f20}.cls-3{fill:#638c1c}</style></defs><g id="Final_Clover_Logo_2clr"><path d="M188.10029 52.32948c-1.25013-.27745-2.50904-.52143-3.77178-.74983.04911-.45523.08279-.91187.08279-1.37083 0-6.68099-6.14035-11.36917-13.2084-12.27338-.18579-1.26521-.39039-2.52915-.60694-3.79174 3.19055.99905 8.94706 2.11441 15.79261.26399-.10265-9.4519-7.33063-21.39151-18.69179-24.81771-2.67834-5.49584-8.54996-9.0128-15.19343-9.0128-7.4649 0-14.08931 4.3713-16.11191 11.05229-10.34013 3.86586-16.85967 14.96287-16.95567 23.83944 6.64958 1.79798 12.24802.73964 15.39153-.23324-.21494 1.31764-.41444 2.63695-.59655 3.95762-5.49413 1.34709-9.58672 5.19409-10.55325 10.23339-.50212-.28794-1.14904-.50857-1.87548-.50857-2.14496 0-3.75534 1.78472-3.75534 3.81342 0 2.09187 1.8362 3.42494 2.83061 3.54948-.54286.42831-1.13558 1.49582-1.13558 2.70436 0 2.11179 1.76148 3.7205 3.74873 3.7205 1.88858 0 2.93629-1.21726 3.38143-2.19301 4.84428 5.71355 14.6112 9.65796 27.8438 9.65796 15.58836 0 27.54517-8.07436 29.42881-17.39784 1.36463.25295 2.63776.51331 3.76628.77393.70652.16316 1.05244-1.02592.18952-1.21741Z" style="fill:#fff"/><path d="M153.3902 15.42223c.22242-1.96558-.32542-4.38776-1.30492-5.2527-.63422 1.61529-2.42222 3.37345-4.27665 4.04577-.56111-1.34798-1.79464-2.90855-2.9086-4.02257-.42168-.42173-.13279-.64081.34533-.3586 1.06416.62753 1.93741 1.45924 2.80236 2.64297 1.47095-.69228 3.1145-2.81067 3.77527-4.66013 1.67507 1.02606 3.05969 3.53457 3.00988 5.565 2.03869-.6176 3.68889-1.85615 4.92409-4.1472.26229-.48476.59764-.33195.38682.27562-1.06583 3.05477-4.07242 5.30428-6.75359 5.91185M153.51206 38.42358s-.09812-3.04504-3.04891-3.66813c-2.40075-.4897-5.38466.90671-5.80025 4.40077-.02702.22721-.02769.45823-.06565.68325-.03085.1829-.06659.42074-.31261.40427-.23065-.01544-.27283-.23955-.28358-.43266-.03756-.67514.03208-1.34189.19858-1.99651.35709-1.40395 1.04153-2.60391 2.21162-3.4932.62035-.47147 1.31872-.77478 2.08356-.91574.15556-.02867.22-.09278.26635-.23892.7231-2.28019 1.56192-4.5176 2.50213-6.71701.04612-.10789.09335-.22526.17294-.30568.06199-.06262.18355-.11321.2628-.09604.05694.01233.121.14451.12269.22448.00276.13025-.03023.26549-.06991.39178-.6694 2.13076-1.2809 4.27704-1.7463 6.46285-.0126.05917-.01704.12008-.02717.19393 1.34727.11043 2.53037.57848 3.53306 1.48328.83331-.83337 1.80186-1.39677 2.98405-1.62392-.08733-.38449-.15717-.76197-.25947-1.13045-.49152-1.7704-.99316-3.53799-1.48665-5.30785-.04381-.15713-.08152-.32461-.07428-.48513.00906-.20107.1873-.26402.33458-.1239.08252.07851.14539.18715.19117.2934.90273 2.09501 1.72171 4.22204 2.41999 6.39431.06949.21617.15452.31267.41263.33907 2.84953.29149 4.74312 2.27491 5.13453 4.75647.0661.41912.07634.84857.08981 1.27396.01009.31837-.13781.56245-.31049.53745-.27563-.0399-.28938-.27625-.30833-.4899-.09766-1.10094-.41393-2.12-1.11683-2.99428-.75165-.93491-1.71444-1.52283-2.91336-1.67466-.77691-.09309-1.62235-.04151-2.41384.21122-2.21777.77446-2.68289 3.64348-2.68289 3.64348Z" class="cls-1"/><path d="M149.39786 40.02204c-.79534-.00036-1.44105-.63348-1.44735-1.41915-.00629-.7841.63862-1.42428 1.43633-1.4258.7937-.00151 1.43994.63395 1.44392 1.41984.00401.79009-.63484 1.42547-1.43291 1.42511ZM157.6152 37.12786c.792.00358 1.42667.64321 1.42402 1.43513-.00266.79208-.64117 1.41472-1.44459 1.40868-.7865-.00592-1.44356-.66336-1.43458-1.43541.00915-.78704.65488-1.41201 1.45515-1.4084ZM150.25231 21.97683c-.09291-1.6626-1.15469-3.08144-2.66409-3.66298-.10971-.8048-.01198-1.5818.06758-1.91353.01211-.04472.01569-.08327.01569-.11824 0-.13875-.11217-.25105-.24969-.25105-.14962 0-.24129.16049-.24129.16049-.28835.49716-.46331 1.19571-.51285 1.88944-.13626-.02051-.2702-.03496-.40895-.03978-.128-.02174-.25463-.0278-.38127-.02409-.35471-.63344-.44762-1.17038-.48505-1.58785.00236-.01087-.00247-.08451-.01087-.10736-.00964-.03262-.02891-.06511-.05189-.08809-.0446-.04707-.10131-.06993-.16654-.06993-.20262 0-.23758.19657-.23758.19657-.06882.45009-.12194 1.17643-.01211 1.84125-.27626.07957-.54176.18693-.79516.32333-.41981-.41994-.78898-.96887-.91328-1.56487l-.01446-.0724c-.0278-.11095-.11342-.13393-.17976-.12911-.22091.00605-.24858.40425-.24858.41624-.05313.59971.21598 1.32605.57067 1.89549-.12664.1086-.24611.22202-.35829.34631-.09771.11095-.18952.2256-.27638.34507-.51878-.21115-1.02669-.57191-1.28009-.92427-.01334-.01927-.02533-.03855-.04102-.05547-.03385-.0446-.08204-.0724-.1364-.09044-.02644-.00729-.05671-.01458-.08686-.01458-.16642 0-.30158.13282-.30158.29924 0 .05918.0362.16654.0362.16654.30158.78182.57191 1.14258 1.24871 1.69633-.17495.50556-.25093 1.04374-.22202 1.59625.10255 1.90278 1.48049 3.49175 3.34942 3.86573.33903.06758.69373.0918 1.04609.07364 2.29715-.12664 4.06477-2.10058 3.94171-4.39785Zm-4.00695 3.23352c-.25216.01446-.50667-.00235-.75402-.053-1.34533-.26551-2.41427-1.41341-2.41427-2.78591 0-.45634.06845-.88291.25291-1.26337.41504-.38046.89926-.66868 1.53336-.93385-.51881.57645-.70327 1.25666-.65715 2.1444.05084.97865.75017 2.01043 1.85617 2.05216 1.22208.04612 2.04063-.89926 2.04063-2.35192 0-.89926-.39199-1.69476-1.02608-2.17898.40352.0807.94538.20752 1.34889.39199.3574.42657.66341 1.1529.66341 1.8113 0 1.65641-1.18607 3.07909-2.84385 3.16718ZM159.787 26.00729c.35132-.01053.70333-.05989 1.03629-.15379 1.83574-.5135 3.09268-2.19839 3.05282-4.1071-.01065-.54855-.12666-1.07943-.33881-1.57055.63261-.60147.87613-.98504 1.11617-1.78822 0 0 .02817-.10853.02394-.16508-.01242-.16608-.15595-.28965-.3208-.27733-.03129.00234-.05976.0093-.08788.02107-.05295.02093-.09641.05441-.12822.09792-.01297.02042-.02482.04063-.03791.0597-.22493.37375-.70462.77015-1.20634 1.01939-.0957-.11501-.19566-.22251-.30253-.32453-.11982-.11456-.24758-.2211-.37954-.3189.31007-.59545.52189-1.33841.42553-1.93135.00024-.0134-.05839-.4082-.28024-.39769-.06652.00014-.14776.03037-.16727.14073l-.01023.07337c-.07839.60229-.40673 1.17866-.79541 1.62746-.26043-.11607-.53422-.20203-.81564-.26078.06117-.67013-.04716-1.39152-.14934-1.83523 0 0-.04953-.19354-.25282-.17834-.06259.00468-.11972.03435-.15981.07972-.02111.02586-.03782.06093-.04499.09418-.008.02228-.00611.09722-.00302.10541-.00612.42033-.05855.96505-.36524 1.62083-.12664.00464-.25354.02255-.37842.05245-.13808.01392-.27048.03955-.40484.07016-.0998-.68696-.3252-1.37185-.65219-1.84471 0 0-.10337-.15321-.25258-.14206-.13713.01025-.24081.12814-.23029.26884.00252.03376.0102.07184.02549.11555.10287.32373.25845 1.09374.20882 1.90326-1.46286.69377-2.41336 2.18886-2.38347 3.85139.04874 2.30252 1.95829 4.13674 4.25879 4.09422Zm-3.09293-4.11721c0-.79354.29779-1.53139.58601-1.91185.47269-.26517 1.08373-.42657 1.68324-.54186-.61104.44963-1.12984 1.18749-1.12984 2.34039 0 1.04358.70461 2.08905 1.84464 2.1444 1.18749.05765 1.99972-1.1096 2.07522-2.12134.05765-.77244-.10376-1.48724-.57645-2.04063.46116.20752.89784.47214 1.24513.7148.19599.40352.27861.77713.29079 1.29645.02885 1.37356-.87789 2.59554-2.19969 2.96048-.24296.06785-.49542.10481-.74929.10805-1.65964.03698-3.06977-1.40203-3.06977-2.94888Z" class="cls-1"/><path d="M189.13433 52.56429c-.12722-.40712-.48627-.49998-.93655-.59983h-.00032c-.9975-.22127-2.04847-.43321-3.27305-.65931.02448-.32048.06402-.81188.06402-1.09628 0-3.33553-1.43522-6.35703-4.15041-8.73726-2.38731-2.09292-5.61462-3.5217-9.12763-4.04831-.11756-.78235-.24672-1.59723-.39134-2.46493 3.63379 1.00362 8.98848 1.69031 15.22022.00644l.43127-.1166-.00483-.44673c-.05314-4.89218-1.95926-10.35735-5.22941-14.99509-3.51912-4.99042-8.35268-8.6387-13.63298-10.29551C165.25059 3.48402 159.29778 0 152.50335 0c-7.78678 0-14.4105 4.48474-16.57911 11.18995-10.56929 4.0992-16.97109 15.51365-17.06578 24.2728l-.00483.44673.43127.1166c6.06393 1.63942 11.28239.9843 14.82824.01836-.14333.90893-.27764 1.8082-.40068 2.68588-5.31991 1.43007-9.24293 5.15114-10.44271 9.87261-.40712-.14848-.90313-.26218-1.46775-.26218-2.38892 0-4.33239 1.96956-4.33239 4.39069 0 1.90869 1.27997 3.24181 2.41404 3.81673-.40422.61712-.71922 1.47645-.71922 2.43723 0 2.36959 1.94057 4.29761 4.32595 4.29761 1.84234 0 2.91843-1.00781 3.47693-1.79241 5.45293 5.89355 15.50012 9.25743 27.74845 9.25743 14.76705 0 27.48624-7.5873 29.89255-17.49147 1.16821.22224 2.24044.44609 3.19414.66608.39649.09179.77561.15482 1.05197-.14312.29954-.32305.40937-.80006.27989-1.21523Zm-4.65169-19.42494c-5.54771 1.46145-10.68452.33733-13.76008-.63845-.3284-1.45199-1.7576-7.64521-2.93432-11.41511 5.34812 1.17713 10.13835 3.88063 13.85088 7.73146.50968.52965.88485.25562.45987-.28396-3.52175-4.46705-8.9819-7.7782-14.78908-9.24105-.34814-1.27993-.71116-2.55447-1.09061-3.82255.95468.45432 1.96915.81683 3.02361 1.02521.01795-1.9322-.26664-3.68468-.71403-5.33344 7.26243 2.63601 15.35403 10.01993 15.95375 21.97787Zm-63.17921.96159c.55314-11.04563 7.72909-17.9895 14.5183-20.90932-.11327 1.3848-.09008 2.07122-.05796 3.21704 1.30474-.13371 2.50818-.45679 3.59329-.91944-.463 1.55461-.89927 3.11956-1.31558 4.69116-5.66207 1.46068-11.06464 4.98656-14.40136 9.28315-.41343.53126-.04986.7952.44989.27559 3.60852-3.74087 8.25632-6.3759 13.44511-7.54516-1.05711 3.66952-2.04655 7.73726-2.91755 11.33368-3.03098.9424-7.97776 1.97905-13.31415.5733Zm45.72218 13.53067c-.14445.07643-.48977.13457-.50807-.24065-.01825-.37522-.04477-.83504-.07467-1.17042.30544-.19426.60427-.39846.89811-.6076.0482.04644.09801.09292.14783.13769.09126.95962-.07477 1.67345-.4632 1.88097Zm-1.74983 1.79798c-.2225.09469-.75537.14279-.78361-.38016-.02828-.52294-.06978-1.16377-.11622-1.6319.53792-.27564 1.06414-.56615 1.57554-.87164.21912 1.50253-.03156 2.61315-.67571 2.8837Zm.44822 1.84785c-.41006.62418-.85167 1.22855-1.32813 1.80459.01825-.42498.02158-.68237.02158-.68731 0-.71882.52128-1.23521.95463-1.23521.07467 0 .26061.03822.35192.11793Zm-2.95676.30877c-.28719.09131-1.05093.11959-1.05093-.65902s-.05642-1.80791-.08133-2.29778c.7587-.28713 1.50248-.60755 2.22795-.95786.08133.72553.48145 3.40669-1.0957 3.91466Zm1.0708 2.13997c-.67571.74872-1.40946 1.4394-2.20138 2.05028.02491-.63084.04981-1.17203.05143-1.18867 0-.67899.39851-1.72654 1.22689-2.08018.63921-.27226.96456.12786.92307 1.21857Zm-4.177-.31371c-.57276.1743-1.49421-.22749-1.51413-1.21534-.01986-.98937-.04316-2.51176-.04316-2.51176 1.0177-.22588 2.02376-.51639 3.00662-.86503.05475 2.52845.14107 4.10726-1.44934 4.59214Zm1.43941 2.75584c-.91813.64415-1.90926 1.1804-2.97007 1.58053l.05475-1.02607c0-.95957.48644-2.12333 1.54231-2.44375 1.28664-.39009 1.39453.64914 1.373 1.88929Zm-5.31091-1.61703c-.52299.02496-1.76314-.28058-1.8063-1.47757-.04149-1.19528 0-2.84054 0-2.84054 1.20531-.04976 2.41057-.1992 3.60257-.43663l.04815 3.09793c0 .855-.84502 1.61365-1.84442 1.65681Zm1.84442 2.24953c-.02652.60271-.04316 1.13896-.04316 1.13896-1.1256.3669-2.32758.57765-3.60262.6026 0 0-.00827-.55289.00998-1.4992.01825-.94792.8965-1.61864 1.8179-1.68338 1.19699-.08632 1.84447.8368 1.8179 1.44102Zm-4.18365-3.7271c-.04976 1.22689-1.2883 1.5473-1.81291 1.53565-.99612-.01654-1.83615-.74872-1.83615-1.59545l.04649-3.01323c1.08738.16275 2.61144.29893 3.6125.24574l-.00993 2.82728Zm.00994 5.47038c-1.24343-.02667-2.44707-.22255-3.60252-.58945 0 0-.03988-.4515-.04321-1.1438-.00333-1.16886 1.28169-1.45771 1.8179-1.42609.92307.04971 1.81291.7703 1.8179 1.66014.00499.88989.00993 1.4992.00993 1.4992Zm-5.63793-5.05866c-1.7581-.16104-1.63528-2.35249-1.5174-4.28816.99274.30377 2.16488.56277 3.02482.71882-.09297 2.11345.3071 3.73542-1.50742 3.56934Zm1.49749 4.28499c-.93633-.33377-2.02875-.89816-2.97007-1.55063-.11788-1.81124.49804-2.28609 1.37129-1.94077 1.40618.55783 1.57054 1.78472 1.59878 3.4914Zm-4.78797-5.31258c1.09237.4814 1.30988 1.80953 1.28164 3.33026v.03983c-.77196-.59096-1.50747-1.27327-2.19806-2.04866-.06645-1.06742.29051-1.59868.91641-1.32142Zm-.97116-4.27994c.72714.3188 1.47253.6026 2.23123.85329-.0365 2.00389.02158 2.85879-1.13719 2.61976-1.40789-.29213-1.20198-2.4869-1.09404-3.47304Zm-1.38465 1.45095c-.63417-.15771-.86826-1.18363-.70223-2.47692.51301.28386 1.03928.54951 1.57548.79848-.08465 1.15882.12121 1.92751-.87325 1.67844Zm.87325 3.4864c-.52622-.65081-1.02431-1.35636-1.49244-2.11678.13774-.32202.35192-.37844.53454-.3618.82011.07296.94964 1.00434.95791 2.47858Zm-2.02542-6.20407c-.02652.30045-.05148.71549-.0664 1.05249-.01659.33876-.32873.28557-.45821.21756-.22245-.11954-.36357-.42332-.41666-.85167.24735-.24075.43325-.46985.57109-.66245.12287.08309.24564.16431.37017.24408Zm41.20098 3.32088c0 .26983-.01143.53539-.02859.79868-3.30477-.46767-9.67638-1.03964-14.56502-1.29525.49287-1.05727.90563-2.12485 1.22224-3.1663 1.21024.51629 2.89862.45328 4.13882.01492.73049-.259.58773-.5561-.1079-.50968-2.89202.19422-5.14164-1.1024-6.51123-3.37014-.31879-.52464-.56116-.38848-.43828.31548.1079.60754.49134 1.50908.95128 2.05697-4.05089 2.63797-8.8421 3.85981-13.77285 3.85981-4.24342 0-8.55157-.81506-12.10105-2.88036.37185-.62918.59103-1.6137.60424-2.20138.01667-.7156-.27385-.77202-.48973-.1976-.97947 2.61144-3.11442 4.19696-5.73428 4.5805-.69055.1012-.74531.40835.01997.51625 1.20195.17268 2.70448-.05149 3.78195-.75034.45149 1.18878.98245 2.29773 1.56977 3.33606-2.99646.42179-5.97802.95384-8.92713 1.58662.30961-.62352.49046-1.34167.49046-1.99754 0-2.27587-1.94315-4.19873-4.2435-4.19873-.50906 0-.99541.08795-1.45366.25753 2.03108-4.62686 7.14115-8.13203 14.85377-7.54332.54288.04145.67735-.4748.06313-.5645-1.93011-.2782-3.79596-.27321-5.55069-.02661.99605-7.9762 2.56124-16.36607 4.6639-24.01984 1.45358-.87608 2.59143-2.06091 3.28134-3.47657.30381-.62418.05975-.87658-.37684-.30045-1.37467 1.81623-3.87986 3.26552-6.3303 3.58261.72051-7.92902 8.42048-12.57253 15.2687-12.57253 6.93453 0 14.28915 4.64351 15.29849 12.42479-2.19309-.43331-4.61027-1.81784-6.2588-3.69893-.37362-.42836-.71729-.24402-.40841.28392.81552 1.39538 2.18472 2.70718 3.84161 3.72045 2.01538 7.37096 3.36589 14.89969 4.47363 22.99406-1.25703-.04743-2.52879.02104-3.78863.22417-.69072.11289-.67574.66074.06804.56448 8.20299-1.05087 16.49553 4.20519 16.49553 11.65279Zm-.21113 2.33535c-1.93727 10.56894-16.87293 15.79038-27.32128 15.79038-9.89089 0-18.68073-2.6239-23.93695-6.9598 2.12545-.48255 3.26717-2.48172 3.26717-4.2372 0-1.4875-.86939-2.70835-1.85393-3.39854 2.96739-.61658 6.05532-1.15202 9.10105-1.57058 3.05339 4.8763 7.56599 7.79676 12.46775 7.79676 6.38908 0 10.85812-4.39379 13.41372-9.28486 4.86432.27025 12.15251 1.34367 14.86247 1.86384Zm-55.93923 1.88176c-.54789-2.04533-.87493-3.7354-.26563-4.78791.72547-1.25679 2.33417-1.68338 3.59095-.95624 1.25674.72714 1.68176 2.33422.95624 3.5909-.64415 1.11736-2.07188 1.56057-4.28156 2.15325m-.80283.2282c-2.04538.54789-3.7354.87498-4.78796.26731-1.25846-.72542-1.6851-2.33584-.95797-3.5909.72886-1.25679 2.33589-1.68348 3.59263-.95624 1.11569.64415 1.56057 2.07016 2.1533 4.27984m.22809.80292c.54784 2.04543.87488 3.73712.26726 4.78963-.72547 1.25841-2.33584 1.6851-3.59263.95797-1.25506-.72886-1.68176-2.33584-.95624-3.59263.64415-1.11736 2.07188-1.56219 4.28161-2.15497m.80283-.22819c2.04533-.54779 3.73702-.87315 4.78958-.26558 1.25679.72552 1.68343 2.33584.95629 3.59263-.72719 1.25506-2.33422 1.68176-3.59101.95624-1.11726-.64577-1.56219-2.0735-2.15487-4.28329" class="cls-1"/><path d="M126.07448 54.44917c-.54789-2.04533-.87493-3.7354-.26563-4.78791.72547-1.25679 2.33417-1.68338 3.59095-.95624 1.25674.72714 1.68176 2.33422.95624 3.5909-.64415 1.11736-2.07188 1.56057-4.28156 2.15325M125.27165 54.67737c-2.04538.54789-3.7354.87498-4.78796.26731-1.25846-.72542-1.6851-2.33584-.95797-3.5909.72886-1.25679 2.33589-1.68348 3.59263-.95624 1.11569.64415 1.56057 2.07016 2.1533 4.27984M125.49974 55.4803c.54784 2.04543.87488 3.73712.26726 4.78963-.72547 1.25841-2.33584 1.6851-3.59263.95797-1.25506-.72886-1.68176-2.33584-.95624-3.59263.64415-1.11736 2.07188-1.56219 4.28161-2.15497M126.30257 55.25211c2.04533-.54779 3.73702-.87315 4.78958-.26558 1.25679.72552 1.68343 2.33584.95629 3.59263-.72719 1.25506-2.33422 1.68176-3.59101.95624-1.11726-.64577-1.56219-2.0735-2.15487-4.28329" class="cls-3"/><path d="M22.99396 111.19258c3.90248-1.40665 7.984-.84453 9.86064-.04275 2.76982 1.18338 4.31597-.13371 5.6743-2.6019 1.128-2.05626 3.46414-7.08343 3.56804-7.30558l.28457-.61501-.61944-.27392c-2.3474-1.03722-6.05872-2.56014-10.88307-2.91034-4.0574-.29453-7.20834.16499-11.24088 1.39419-15.39184 4.69172-23.33638 20.22267-17.9577 37.86816 5.37868 17.64549 20.6357 26.10416 36.02754 21.41244 4.03254-1.22919 6.90405-2.60543 10.10728-5.11314 3.80871-2.98173 6.03949-6.31591 7.40919-8.48617l.36132-.57287-.57924-.3517c-.21015-.12641-4.95328-2.99569-7.03648-4.07312-2.50415-1.29083-4.52209-1.52152-6.16086 1.00568-1.11032 1.71226-4.1843 4.45552-8.20788 5.46487-8.68433 2.17856-13.86965-3.53441-17.12669-13.79554-3.02051-10.33322-1.90361-17.96723 6.51934-21.0033Zm93.25475 28.65326c.68318-.02886 1.37762-.07743 2.07592-.14539.69764-.07439 1.38759-.167 2.06253-.27664 17.97587-2.92005 24.76351-19.43046 23.33169-33.47081-1.43182-14.04035-11.4125-28.84074-29.60777-28.0721-.68318.02886-1.37762.07743-2.07592.14539-.69764.07439-1.38759.167-2.06253.27664-17.97587 2.92005-24.76351 19.43046-23.33169 33.47081 1.43182 14.04035 11.4125 28.84074 29.60777 28.0721Zm171.06262-39.40026c-10.87024-3.92916-19.01645-6.30814-19.01645-6.30814l-19.33896 57.30425 14.37881 4.28574 6.73689-19.89823c.56448.18934 1.498.50137 2.70774.90314 1.47428.48806 2.37884 1.42905 2.68537 2.79659.25488 1.13586 4.45551 18.7468 4.48814 18.9081.36437 2.22958 1.58579 3.63826 4.15541 4.7245 2.56962 1.08624 12.91709 5.40253 12.91709 5.40253s-5.62088-23.32784-6.04966-25.4298c-.36519-1.79026-1.33257-3.48519-2.33159-4.7489 2.15138-.25604 11.28023-.39078 15.58623-12.03646 4.33823-11.73285-1.78133-20.43166-16.91902-25.90333Zm-8.41168 9.30895c.78255.26495 2.32359.71106 4.5098 1.52687 6.14817 2.29421 8.46656 5.69981 6.8778 10.39242s-6.06098 7.73119-12.1733 5.66176c-2.44825-.8289-3.89306-1.32472-4.63533-1.56937l5.42103-16.01168Zm-101.1135 28.59324 26.91491-57.93258s-10.06543-1.1891-12.33505-1.42145c-2.69674-.27608-4.74169 1.71797-5.47257 3.37263-.3654.82838-13.99479 33.39541-14.50646 35.0061l-.03226-.00179c-.33018-1.65745-10.58025-36.47201-10.85168-37.33575-.54316-1.72541-1.99937-2.84957-4.70972-2.90043-2.3595-.04427-12.45067-.02979-12.45067-.02979l20.31685 60.51407 13.12666.72899Zm71.72814-40.47267 3.77089-7.8807s-12.91079-2.88968-20.76432-4.51692c-7.85353-1.62724-19.22726-3.77458-19.22726-3.77458l-12.24567 59.0634s12.33328 2.43496 20.01748 3.97229c7.6842 1.53733 19.9755 4.31949 19.9755 4.31949l-.3631-8.51273c-.26348-2.24077-1.90508-4.15685-4.10898-4.61595l-18.18082-3.76945 2.48098-11.96629 19.19639 3.99415 2.35026-11.30153-19.20305-3.99626 2.56793-12.38567 18.15424 3.76394c2.17323.45495 4.466-.48058 5.57955-2.3932Zm-147.46634 12.32745c-1.08234-10.61337 1.52985-17.89349 10.47086-19.34663.26789-.04352.57234-.08612.81638-.11115s.55105-.0445.82221-.05595c9.05029-.38159 13.07826 6.22137 14.1606 16.83474 1.08234 10.61337-1.52985 17.89349-10.47086 19.34663-.26789.04352-.55795.08849-.81595.11638s-.55148.03927-.82264.05073c-9.05029.38159-13.07826-6.22137-14.1606-16.83474Zm-40.73972 39.47163s8.82146-2.06825 15.67045-3.63999 18.79096-4.04024 18.79096-4.04024l-4.91474-7.49735c-1.16136-1.93432-3.44548-3.00604-5.64341-2.51835l-11.63507 2.72129-10.54979-47.48125-14.81538 3.67956 13.09697 58.77632ZM120.40884 64.55637C80.43212 67.94261 40.97259 77.64059 3.10247 93.39796c-.40422.16813-.65609.37894-.74885.62646-.06635.17602-.05089.36444.04509.55947.1021.20694.2989.31146.57396.31146.19229 0 .4229-.05105.68605-.15412 38.39962-15.03299 78.8255-24.10045 120.18083-26.96799-1.39279-1.12133-2.59393-2.27667-3.43071-3.21686ZM302.65311 94.02442c-.09276-.24752-.34463-.45833-.74885-.62646-37.83871-15.74426-77.2641-25.43908-117.20676-28.83301-.83815.94062-2.03946 2.09512-3.43168 3.21521 41.32103 2.87515 81.71309 11.94003 120.08219 26.96106.26315.10307.49376.15412.68605.15412.27506 0 .47186-.10452.57396-.31146.09598-.19502.11144-.38344.04509-.55947Z" class="cls-1"/><path d="m32.65928 63.79031 1.21491-1.5808c.87704.94565 1.84459 1.23778 2.81504.96562.94017-.26379 1.33344-.98591 1.10315-1.80691s-.77816-1.1666-2.4849-1.39593c-2.05781-.27635-3.36517-.7466-3.84669-2.46332-.49827-1.77631.60262-3.53426 2.64756-4.1079 1.56728-.43965 2.87946-.06699 3.89307.79169l-1.07287 1.6858c-.65513-.55689-1.35051-.79684-2.18633-.56236-.79105.22224-1.20525.86964-1.03358 1.4816s.75401.85128 2.46075 1.08092c2.23464.27474 3.38352.98301 3.89854 2.81891.56945 2.03011-.64031 3.80256-2.73001 4.38876-1.97021.5527-3.63894-.05798-4.67864-1.29608ZM47.49397 62.14767l-2.8421-11.33811 2.25558-.56558 2.8421 11.33811-2.25558.56558ZM62.54091 46.6643l2.24269-.48474 2.47041 11.42539-1.53056.33111-8.30018-6.18375 1.69353 7.61221-2.24269.48474-2.47041-11.42539 1.5457-.334 8.3034 6.19889-1.71189-7.62445ZM72.9994 50.60278c-.57718-3.29817 1.54022-6.48555 5.0062-7.09204 1.00781-.17618 2.03044-.08793 3.08044.24768l.48506 2.59022c-1.10637-.65577-2.15573-.89733-3.17868-.71825-2.04622.35816-3.46501 2.3216-3.07754 4.53563.36879 2.10709 2.33255 3.52621 4.45479 3.15452 1.12988-.19776 1.84459-.70022 2.71004-1.7805l.42902 2.63177c-.82809.66447-1.94315 1.12698-2.9661 1.30606-3.32845.58233-6.36605-1.57694-6.94323-4.87511ZM89.95438 53.64972 88.34169 42.0723l6.72518-.93695.27828 1.9963-4.42226.61583.33143 2.38022 4.25348-.59264.27377 1.96538-4.25348.59264.45157 3.23955 4.45253-.62034.27828 1.9963-6.7561.94114ZM209.15172 52.83548l1.27836-9.44617-1.93961-.23126 1.00878-2.02174 3.55423.43385-1.56695 11.58096-2.33481-.31565ZM228.14294 55.79997l-2.79153-.50471 3.36323-2.92036c.22192-.18037.44351-.36074.64997-.54433-.29825-.00644-.51437-.02963-.69764-.06313-1.76922-.31951-3.1951-2.27877-2.8173-4.36847.41646-2.30324 2.6846-3.61027 4.94243-3.20219 2.25751.40808 3.94943 2.46268 3.53297 4.76592-.19551 1.08318-.87414 2.04719-1.93929 2.97319l-4.24285 3.86408Zm3.94557-7.27304c.2013-1.11345-.50825-2.15541-1.63717-2.35961-1.12859-.20388-2.15541.50825-2.35929 1.63717-.2042 1.12859.50793 2.15541 1.63685 2.35961 1.11345.20098 2.15541-.50825 2.35961-1.63717ZM245.49764 59.28689l2.09518-9.30059-1.91223-.39939 1.18109-1.92672 3.50366.74177-2.56897 11.40285-2.29874-.51792ZM261.55819 59.15097c.30985-1.13665 1.13375-2.03688 2.43594-2.98317l4.31114-3.26017 2.7371.74595-3.8338 2.7474-.59135.40132c.28279-.03543.59393.00097.83324.06635 1.78018.48506 3.01087 2.39504 2.4076 4.60874-.61164 2.24334-2.98543 3.3481-5.18399 2.74869-2.22852-.60713-3.73557-2.80151-3.11587-5.07513Zm6.10097 1.72703c.30985-1.13665-.27345-2.17924-1.42524-2.49328-1.1666-.3179-2.18762.30373-2.49328 1.42524-.29761 1.09188.34173 2.16604 1.44843 2.46783 1.07674.29342 2.1728-.30792 2.47009-1.39979ZM91.75486 172.1263l2.16507-1.61881c.79878 1.55568 1.95507 2.29133 3.32136 2.29133 1.32442 0 2.10226-.79878 2.10226-1.95507 0-1.15597-.58878-1.80755-2.73291-2.73259-2.58539-1.1141-4.12014-2.20726-4.12014-4.62453 0-2.50165 2.08133-4.39359 4.96111-4.39359 2.20726 0 3.78388.96691 4.79266 2.45946l-2.01788 1.80787c-.65158-.96691-1.47162-1.53442-2.64884-1.53442-1.1141 0-1.89162.69345-1.89162 1.55536s.67252 1.38755 2.81665 2.31226c2.81697 1.17723 4.05701 2.52259 4.05701 5.1083 0 2.85884-2.2282 4.72985-5.17111 4.72985-2.77478 0-4.72985-1.40849-5.63362-3.40543Zm16.45736-4.85611c0-4.5614 3.82575-8.17715 8.42966-8.17715 4.54046 0 8.36621 3.57356 8.36621 8.24028s-3.84669 8.1984-8.47153 8.1984c-4.4564 0-8.32434-3.42668-8.32434-8.26153Zm13.57984.0422c0-3.00604-2.27039-5.29737-5.19237-5.29737-2.85884 0-5.19237 2.3332-5.19237 5.27643 0 3.11104 2.43852 5.3183 5.15017 5.3183 2.94323 0 5.23456-2.29133 5.23456-5.29737Zm20.55691-7.92495h3.11104v15.8499h-2.12288l-9.22844-10.5738.06313 10.5738h-3.11136v-15.8499h2.14446l9.22812 10.59473-.08406-10.59473Zm8.80784 7.88275c0-4.5614 3.82575-8.17715 8.42966-8.17715 4.54046 0 8.36621 3.57356 8.36621 8.24028s-3.84669 8.1984-8.47153 8.1984c-4.4564 0-8.32434-3.42668-8.32434-8.26153Zm13.57984.0422c0-3.00604-2.27039-5.29737-5.19237-5.29737-2.85884 0-5.19237 2.3332-5.19237 5.27643 0 3.11104 2.43852 5.3183 5.15017 5.3183 2.94323 0 5.23456-2.29133 5.23456-5.29737Zm16.1437 7.92495-3.80481-9.33344-1.53442 9.33344h-3.15323l2.9851-15.8499h1.976l4.26733 10.42628 4.41453-10.42628h1.95475l2.73291 15.8499h-3.19543l-1.38723-9.3125-3.95201 9.3125h-1.30349Zm25.415 0-1.3241-3.42636h-6.34866l-1.40816 3.42636h-3.34262l6.93711-15.8499h2.2282l6.72679 15.8499h-3.46856Zm-6.60053-6.03301h4.2464l-.88316-2.29133c-.39939-1.05097-.79878-2.10226-1.17691-3.15323-.39939 1.05097-.82003 2.10226-1.24036 3.15323l-.94597 2.29133Z" class="cls-3"/><path d="M214.29083 170.7365v-.02729c0-2.4961 2.02256-4.59892 4.57485-4.59892 2.57476 0 4.57164 2.07554 4.57164 4.57324v.02568c0 2.49771-2.02256 4.60053-4.57164 4.60053-2.57797 0-4.57485-2.07714-4.57485-4.57324Zm8.4893-.02727v-.02485c0-2.1623-1.67765-3.94247-3.91451-3.94247-2.21512 0-3.91762 1.80502-3.91762 3.96732v.02641c0 2.1623 1.67765 3.94247 3.91762 3.94247 2.21201 0 3.91451-1.80658 3.91451-3.96888Zm-5.91455-2.49612h2.31471c1.18143 0 2.02256.49922 2.02256 1.62929 0 .76247-.39488 1.28738-.99844 1.52495l1.15575 1.68226h-1.57632l-.97276-1.44629h-.57788v1.44629h-1.36764v-4.83649Zm2.23445 2.3131c.47514 0 .73519-.23757.73519-.57788 0-.3692-.26004-.57948-.73519-.57948h-.86681v1.15736h.86681Z" class="cls-1"/></g></svg>