<?xml version="1.0" encoding="UTF-8"?>
<svg id="Layer_1" xmlns="http://www.w3.org/2000/svg" version="1.1" viewBox="0 0 923.08 109.9">
  <!-- Generator: Adobe Illustrator 30.5.1, SVG Export Plug-In . SVG Version: 2.1.4 Build 3)  -->
  <path d="M646.89,109.9h77.54L764.16,0h-77.54l-39.73,109.9ZM885.27,109.9l-51.26-57.99L923.08,0h-90.99l-82.02,50.94,45.82,58.95h89.39ZM661.95,21.15L669.64,0h-198.33l-27.23,75.61c-1.6,4.81-1.92,10.25,1.6,14.42,1.28,1.28,9.93,11.53,11.85,13.46,3.2,3.52,7.05,6.41,13.46,6.41h158.92l7.69-20.83h-111.18c-6.73,0-9.93-5.13-8.33-10.25l5.13-13.78h123.03l7.69-21.15h-123.03l8.33-22.75c0-.32,122.71-.32,122.71,0h0ZM434.14,0h-197.37l-39.73,109.9h75.61l32.04-88.75h56.39c6.09,0,8.33,4.49,7.05,8.65-1.28,4.49-3.2,9.93-4.81,13.14-1.92,4.49-6.41,8.01-13.14,8.01h-52.87l45.82,58.31h86.83l-39.09-43.9h23.39c10.89,0,17.3-5.77,20.19-13.14,3.2-8.33,10.57-28.52,12.82-35.24,4.17-10.25-2.24-16.98-13.14-16.98M0,21.15h74.33l-32.04,88.75h73.05l32.04-88.75h68.25L223,0H7.69L0,21.15Z"/>
</svg>