<?xml version="1.0" encoding="UTF-8"?>
<svg xmlns="http://www.w3.org/2000/svg" id="Layer_1" data-name="Layer 1" viewBox="0 0 300 100">
  <defs>
    <style>
      .cls-1 {
        fill: none;
      }

      .cls-1, .cls-2, .cls-3, .cls-4, .cls-5 {
        stroke-width: 0px;
      }

      .cls-2 {
        fill: #221f1f;
      }

      .cls-3 {
        fill: #231f20;
      }

      .cls-4 {
        fill: #edaa00;
      }

      .cls-5 {
        fill: #edaa00;
      }
    </style>
  </defs>
  <rect class="cls-1" width="300" height="100"></rect>
  <g>
    <g>
      <path class="cls-3" d="M56.15,69.16s1.16,1.18,2.78,1.18c1.02,0,1.89-.57,1.89-1.61,0-2.37-5.29-1.86-5.29-5.21,0-1.7,1.47-3.05,3.53-3.05s3.09,1.1,3.09,1.1l-.7,1.27s-1.01-.94-2.4-.94c-1.16,0-1.98.73-1.98,1.59,0,2.26,5.29,1.65,5.29,5.2,0,1.69-1.3,3.08-3.46,3.08-2.32,0-3.62-1.44-3.62-1.44l.87-1.16Z"></path>
      <path class="cls-3" d="M67,63.56c2.21,0,3.39,1.64,3.39,3.66,0,.2-.05.65-.05.65h-5.71c.08,1.72,1.3,2.58,2.69,2.58s2.32-.91,2.32-.91l.62,1.1s-1.16,1.11-3.03,1.11c-2.46,0-4.14-1.78-4.14-4.1,0-2.49,1.69-4.1,3.91-4.1ZM68.86,66.75c-.05-1.35-.88-1.99-1.89-1.99-1.14,0-2.07.71-2.29,1.99h4.18Z"></path>
      <path class="cls-3" d="M71.6,63.75h1.45v1.36c0,.32-.03.59-.03.59h.03c.36-1.14,1.27-2.04,2.47-2.04.2,0,.39.03.39.03v1.48s-.2-.05-.43-.05c-.96,0-1.84.68-2.2,1.84-.14.45-.19.93-.19,1.41v3.2h-1.5v-7.82Z"></path>
      <path class="cls-3" d="M76.33,63.75h1.59l1.9,5.29c.15.43.25,1.07.26,1.07h.03s.12-.63.28-1.07l1.9-5.29h1.58l-2.89,7.82h-1.73l-2.92-7.82Z"></path>
      <path class="cls-3" d="M84.52,60.65h1.52v1.53h-1.52v-1.53ZM84.54,63.75h1.5v7.82h-1.5v-7.82Z"></path>
      <path class="cls-3" d="M91.41,63.56c1.96,0,2.94,1.14,2.94,1.14l-.71,1.05s-.84-.9-2.16-.9c-1.58,0-2.72,1.18-2.72,2.78s1.14,2.81,2.77,2.81c1.45,0,2.41-1.05,2.41-1.05l.6,1.1s-1.08,1.25-3.12,1.25c-2.46,0-4.19-1.75-4.19-4.1s1.73-4.1,4.19-4.1Z"></path>
      <path class="cls-3" d="M99.14,63.56c2.21,0,3.39,1.64,3.39,3.66,0,.2-.05.65-.05.65h-5.71c.08,1.72,1.3,2.58,2.69,2.58s2.32-.91,2.32-.91l.62,1.1s-1.16,1.11-3.03,1.11c-2.46,0-4.14-1.78-4.14-4.1,0-2.49,1.69-4.1,3.91-4.1ZM100.99,66.75c-.05-1.35-.88-1.99-1.89-1.99-1.14,0-2.07.71-2.29,1.99h4.18Z"></path>
      <path class="cls-3" d="M114.51,60.65l2.13,8.01c.15.6.23,1.16.23,1.16h.03s.05-.57.2-1.16l2.01-8.01h1.58l-2.86,10.92h-1.78l-1.89-7.08c-.19-.7-.32-1.55-.32-1.55h-.03s-.14.85-.32,1.55l-1.89,7.08h-1.78l-2.78-10.92h1.58l1.93,8.01c.14.59.2,1.16.2,1.16h.03s.08-.56.23-1.16l2.13-8.01h1.36Z"></path>
      <path class="cls-3" d="M121.73,60.65h1.52v1.53h-1.52v-1.53ZM121.75,63.75h1.5v7.82h-1.5v-7.82Z"></path>
      <path class="cls-3" d="M125.61,65.06h-1.02v-1.21h1.07v-2.26h1.45v2.26h1.89v1.21h-1.89v3.48c0,1.56,1.1,1.76,1.67,1.76.22,0,.36-.03.36-.03v1.33s-.22.03-.53.03c-1,0-3-.31-3-2.92v-3.65Z"></path>
      <path class="cls-3" d="M130.52,60.65h1.5v4.01c0,.37-.03.65-.03.65h.03c.34-.76,1.33-1.75,2.89-1.75,1.84,0,2.69,1,2.69,3v5.01h-1.5v-4.67c0-1.1-.23-1.96-1.48-1.96-1.17,0-2.15.8-2.47,1.93-.09.31-.12.66-.12,1.04v3.66h-1.5v-10.92Z"></path>
      <path class="cls-3" d="M143.54,69.16s1.16,1.18,2.78,1.18c1.02,0,1.89-.57,1.89-1.61,0-2.37-5.29-1.86-5.29-5.21,0-1.7,1.47-3.05,3.53-3.05s3.09,1.1,3.09,1.1l-.7,1.27s-1.01-.94-2.4-.94c-1.16,0-1.98.73-1.98,1.59,0,2.26,5.29,1.65,5.29,5.2,0,1.69-1.3,3.08-3.46,3.08-2.32,0-3.62-1.44-3.62-1.44l.87-1.16Z"></path>
      <path class="cls-3" d="M154.98,63.56c2.34,0,4.22,1.72,4.22,4.08s-1.89,4.11-4.22,4.11-4.22-1.73-4.22-4.11,1.89-4.08,4.22-4.08ZM154.98,70.46c1.48,0,2.69-1.17,2.69-2.81s-1.21-2.78-2.69-2.78-2.69,1.16-2.69,2.78,1.22,2.81,2.69,2.81Z"></path>
      <path class="cls-3" d="M160.42,60.65h1.5v8.52c0,.94.37,1.11.84,1.11.14,0,.26-.02.26-.02v1.33s-.23.03-.49.03c-.85,0-2.1-.23-2.1-2.2v-8.78Z"></path>
      <path class="cls-3" d="M164.04,63.75h1.5v4.67c0,1.08.22,1.95,1.47,1.95,1.59,0,2.54-1.41,2.54-2.95v-3.67h1.5v7.82h-1.45v-1.04c0-.32.03-.57.03-.57h-.03c-.32.77-1.35,1.79-2.88,1.79-1.76,0-2.68-.93-2.68-3v-5.01Z"></path>
      <path class="cls-3" d="M173.26,65.06h-1.02v-1.21h1.07v-2.26h1.45v2.26h1.89v1.21h-1.89v3.48c0,1.56,1.1,1.76,1.67,1.76.22,0,.36-.03.36-.03v1.33s-.22.03-.53.03c-1,0-3-.31-3-2.92v-3.65Z"></path>
      <path class="cls-3" d="M177.99,60.65h1.52v1.53h-1.52v-1.53ZM178.01,63.75h1.5v7.82h-1.5v-7.82Z"></path>
      <path class="cls-3" d="M185.04,63.56c2.34,0,4.22,1.72,4.22,4.08s-1.89,4.11-4.22,4.11-4.22-1.73-4.22-4.11,1.89-4.08,4.22-4.08ZM185.04,70.46c1.48,0,2.69-1.17,2.69-2.81s-1.21-2.78-2.69-2.78-2.69,1.16-2.69,2.78,1.22,2.81,2.69,2.81Z"></path>
      <path class="cls-3" d="M190.58,63.75h1.45v1.04c0,.31-.03.57-.03.57h.03c.31-.68,1.24-1.79,2.94-1.79,1.84,0,2.69,1,2.69,3v5.01h-1.5v-4.67c0-1.1-.23-1.96-1.48-1.96s-2.15.79-2.47,1.92c-.09.31-.12.66-.12,1.05v3.66h-1.5v-7.82Z"></path>
      <path class="cls-3" d="M199.53,69.54s.88.91,2.24.91c.65,0,1.3-.34,1.3-.97,0-1.44-4.02-1.14-4.02-3.7,0-1.42,1.27-2.23,2.83-2.23,1.72,0,2.52.87,2.52.87l-.6,1.13s-.7-.7-1.93-.7c-.65,0-1.28.28-1.28.96,0,1.41,4.02,1.1,4.02,3.66,0,1.3-1.11,2.27-2.83,2.27-1.92,0-2.97-1.14-2.97-1.14l.73-1.07Z"></path>
      <path class="cls-3" d="M207.09,61.89c1.07,0,1.93.87,1.93,1.97s-.86,1.97-1.93,1.97-1.92-.87-1.92-1.97.85-1.97,1.92-1.97ZM207.09,65.46c.87,0,1.54-.7,1.54-1.6s-.67-1.6-1.54-1.6-1.52.7-1.52,1.6.66,1.6,1.52,1.6ZM206.43,62.84h.78c.38,0,.64.24.64.62,0,.31-.2.5-.37.54h0s.02.03.07.12l.39.75h-.42l-.38-.79h-.33v.79h-.38v-2.03ZM207.14,63.8c.2,0,.33-.13.33-.35s-.13-.33-.33-.33h-.32v.67h.32Z"></path>
    </g>
    <g>
      <path class="cls-3" d="M38.54,49.12c-2.93,0-4.09-1.16-4.09-4.27v-8.17l-2.77-.24v-2.56h2.77v-3.77h3.48v3.77h3.61v2.79h-3.61v8.12c0,1.37.11,1.64,1.37,1.64.76,0,1.82-.05,2.24-.11v2.37c-.4.11-1.69.42-3,.42Z"></path>
      <path class="cls-3" d="M46.86,38.02v10.7h-3.45v-14.84h3.3v1.63c1.4-1.24,3.22-1.58,5.06-1.58v3.19c-1.79,0-3.77.37-4.9.9Z"></path>
      <path class="cls-3" d="M53.66,31.59v-3.35h3.59v3.35h-3.59ZM53.69,48.73v-14.84h3.51v14.84h-3.51Z"></path>
      <path class="cls-3" d="M70.66,49.12c-4.27,0-6.25-2.42-6.25-6.88v-1.87c0-4.53,1.98-6.85,6.25-6.85,2.27,0,3.9.34,4.59.56v2.64c-1.87-.16-3.16-.24-3.98-.24-2.16,0-3.37.68-3.37,3.9v1.87c0,3.19,1.21,3.93,3.37,3.93.82,0,2.11-.08,3.98-.24v2.64c-.69.18-2.32.55-4.59.55Z"></path>
      <path class="cls-3" d="M83.23,49.12c-4.32,0-6.7-2.21-6.7-6.91v-1.82c0-4.67,2.37-6.88,6.7-6.88s6.7,2.21,6.7,6.88v1.82c0,4.69-2.37,6.91-6.7,6.91ZM86.47,40.4c0-2.85-.98-3.9-3.24-3.9s-3.24,1.05-3.24,3.9v1.82c0,2.85.98,3.93,3.24,3.93s3.24-1.08,3.24-3.93v-1.82Z"></path>
      <path class="cls-3" d="M101.68,48.73v-1.19c-1.77.95-3.43,1.58-5.14,1.58-3.87,0-4.45-2.74-4.45-5.8v-9.44h3.45v9.44c0,2.11.4,2.87,2.13,2.87,1,0,2.29-.4,3.87-1v-11.31h3.48v14.84h-3.35Z"></path>
      <path class="cls-3" d="M117.21,48.73v-9.41c0-2.13-.37-2.87-2.08-2.87-1,0-2.32.37-3.9,1v11.28h-3.45v-14.84h3.32v1.19c1.61-.92,3.22-1.56,4.88-1.56,4.19,0,4.75,2.43,4.75,5.8v9.41h-3.51Z"></path>
      <path class="cls-3" d="M128.97,49.12c-2.93,0-4.09-1.16-4.09-4.27v-8.17l-2.77-.24v-2.56h2.77v-3.77h3.48v3.77h3.61v2.79h-3.61v8.12c0,1.37.11,1.64,1.37,1.64.77,0,1.82-.05,2.24-.11v2.37c-.4.11-1.69.42-3.01.42Z"></path>
      <path class="cls-3" d="M134.37,31.59v-3.35h3.59v3.35h-3.59ZM134.4,48.73v-14.84h3.51v14.84h-3.51Z"></path>
      <path class="cls-3" d="M143.37,42.4v.26c0,2.16.32,3.56,3.95,3.56,1.56,0,3.4-.16,5.35-.34v2.61c-1.11.26-3.03.63-5.51.63-5.35,0-7.25-2.06-7.25-7.28v-.92c0-4.98,2.27-7.41,6.7-7.41,4.96,0,6.7,3.22,6.7,7.73v1.16h-9.94ZM149.83,39.9c0-1.71-.34-3.59-3.22-3.59s-3.22,1.9-3.22,3.59v.24h6.43v-.24Z"></path>
      <path class="cls-3" d="M160.23,49.09c-2.06,0-4.4-.37-5.06-.58v-2.48c.76.05,3,.34,4.9.34,2.16,0,2.74-.5,2.74-1.56s-.45-1.29-2.64-2.16l-1.13-.45c-2.79-1.11-4.09-2.37-4.09-4.67,0-2.98,1.98-4.03,5.93-4.03,1.69,0,3.9.34,4.64.58v2.42c-1.66-.16-3.29-.26-4.59-.26-1.79,0-2.56.16-2.56,1.21,0,.95.53,1.21,2.35,1.92l1.19.48c3.19,1.29,4.3,2.29,4.32,4.75,0,2.79-1.87,4.48-6.01,4.48Z"></path>
      <path class="cls-3" d="M178.76,49.12c-1.95,0-3.3-.11-5.96-.42v-20.46h3.48v5.96c1.08-.53,2.35-.71,3.48-.71,4.11,0,6.01,2.08,6.01,6.59v2.06c0,5.01-2.37,6.99-7.01,6.99ZM182.29,40.05c0-2.69-.76-3.61-2.98-3.61-.66,0-2.14.11-3.06.55v9.04c.58.03,1.48.11,2.56.11,2.42,0,3.48-.9,3.48-4.01v-2.08Z"></path>
      <path class="cls-3" d="M196.37,48.73v-.98c-.92.63-2.58,1.37-4.69,1.37-2.77,0-4.35-1.37-4.35-4.24v-.55c0-3.95,2.85-4.48,7.01-4.48h1.77v-.92c0-2.11-.45-2.53-3.08-2.53-1.48,0-3.03.11-4.67.29v-2.35c.63-.26,2.85-.82,5.25-.82,4.74,0,5.98,1.61,5.98,5.4v9.81h-3.21ZM196.18,41.98h-1.85c-2.56,0-3.64.29-3.64,2.24v.63c0,1.37.84,1.74,2.08,1.74,1.42,0,2.87-.58,3.4-.9v-3.72Z"></path>
      <path class="cls-3" d="M211.54,48.73v-9.41c0-2.13-.37-2.87-2.08-2.87-1,0-2.32.37-3.9,1v11.28h-3.45v-14.84h3.32v1.19c1.61-.92,3.22-1.56,4.88-1.56,4.19,0,4.75,2.43,4.75,5.8v9.41h-3.51Z"></path>
      <path class="cls-3" d="M226.27,48.73l-5.25-7.04v7.04h-3.45v-20.48h3.45v12.26l5.27-6.62h3.98l-5.75,7.12,5.9,7.72h-4.16Z"></path>
    </g>
    <path class="cls-5" d="M23.25,33.75c-2.31-1.79-4.35-.08-6.26,2.79-1.91,2.87-2.59,7.62-2.59,7.62,0-1.51-.07-5.05,1.9-9.15,1.98-4.1,5.23-3.49,5.23-3.49-2.19-1.99-5.1-3.2-8.3-3.2s-6.1,1.22-8.3,3.2c0,0,3.25-.61,5.23,3.49,1.98,4.1,1.9,7.64,1.9,9.15,0,0-.68-4.75-2.59-7.62-1.91-2.87-3.95-4.57-6.26-2.79-2.31,1.79-2.32,6.91-2.32,6.91,0,6.81,5.52,12.34,12.34,12.34s12.34-5.52,12.34-12.34c0,0-.02-5.12-2.32-6.91ZM3.54,41.73s-.58-3.26,1.85-3.26,3.94,3.71,3.94,3.71c1.39,3.22,2.08,8.05,2.08,8.05-4.17-.79-7.39-4.23-7.87-8.5ZM22.94,41.73c-.48,4.27-3.71,7.71-7.87,8.5,0,0,.69-4.83,2.08-8.05,0,0,1.52-3.71,3.94-3.71s1.85,3.26,1.85,3.26Z"></path>
  </g>
  <g>
    <g>
      <path class="cls-3" d="M251.62,53.6c3,0,6.62-1.1,6.62-7.73,0-4.28-1.55-7.24-6.54-7.24-1.68,0-3.97.35-5.61,1.72l-1.37-.49,2.96-15.94.04-.04c2.25.75,5.43,1.02,8.74,1.02,4.42,0,8.88-.49,11.57-1.59l.04.04c-.71,8.48-4.02,9.89-11.92,10.25-6.93.31-8.43-.22-10.11,4.95l.09.04c2.08-1.9,6.01-2.56,9.85-2.56,7.55,0,13.38,2.65,13.38,9.36s-6.05,10.2-14.31,10.2c-7.82,0-12.81-2.96-12.81-8.52,0-4.11,2.74-5.65,5.56-5.65,3.4,0,4.81,2.3,4.81,4.55s-1.41,4.55-4.46,4.55c-1.24,0-2.43-.4-2.91-1.15l-.13.04c.75,2.96,3.36,4.2,6.49,4.2Z"></path>
      <path class="cls-3" d="M281.14,23.42c6.41,0,12.86,5.44,12.86,14.26s-6.45,14.26-12.86,14.26-12.86-5.44-12.86-14.26,6.45-14.26,12.86-14.26ZM281.14,50.61c2.02,0,3.03-.97,3.07-3.03.04-2.1.08-7.19.08-9.91s-.04-7.81-.08-9.91c-.04-2.06-1.05-3.03-3.07-3.03s-3.03.97-3.07,3.03c-.04,2.1-.08,7.19-.08,9.91s.04,7.81.08,9.91c.04,2.06,1.05,3.03,3.07,3.03Z"></path>
    </g>
    <polygon class="cls-4" points="298.11 59.01 245.11 68.57 246.49 57.78 299.49 48.22 298.11 59.01"></polygon>
    <g>
      <path class="cls-2" d="M247.91,61.21l-.12-.67,3.25-.59.12.67-1.21.22.68,3.74-.83.15-.68-3.74-1.22.22Z"></path>
      <path class="cls-2" d="M252.09,61.13l.08.5h.02c.06-.36.33-.64.66-.7.21-.04.34,0,.34,0l.07.72h-.04c-.09,0-.24,0-.35.03-.24.04-.41.18-.49.4-.05.17-.05.39,0,.62l.27,1.52-.81.15-.56-3.1.81-.15Z"></path>
      <path class="cls-2" d="M253.32,59.93c-.05-.26.12-.49.41-.54s.53.1.57.37-.12.49-.41.54-.53-.1-.57-.37ZM254.39,60.71l.56,3.1-.82.15-.56-3.1.82-.15Z"></path>
      <path class="cls-2" d="M259.13,63.13c-1.29.23-2.45-.46-2.7-1.86s.6-2.46,1.88-2.69c.86-.16,1.43.12,1.64.27l-.17.73c-.16-.14-.72-.39-1.35-.28-.77.14-1.34.76-1.15,1.81.17.95.88,1.47,1.76,1.31.59-.11.95-.44,1.16-.76l.41.57c-.2.31-.62.76-1.49.92Z"></path>
      <path class="cls-2" d="M260.65,61.19c-.18-.98.44-1.75,1.39-1.92s1.79.34,1.97,1.32-.44,1.74-1.39,1.91-1.8-.32-1.97-1.3ZM262.16,59.93c-.54.1-.76.56-.66,1.09s.47.89,1,.8.76-.57.66-1.1-.48-.89-1-.79Z"></path>
      <path class="cls-2" d="M266.04,61.17c.49-.09.61-.51.51-1.03l-.28-1.57.82-.15.56,3.1-.79.14-.09-.43c-.12.34-.42.58-.87.67-.89.16-1.21-.38-1.34-1.12l-.33-1.84.82-.15.3,1.66c.08.46.23.81.7.73Z"></path>
      <path class="cls-2" d="M269.41,58.64c-.51.09-.6.54-.51,1.06l.28,1.54-.82.15-.56-3.1.82-.15.08.47h.02c.11-.36.39-.61.83-.7.89-.16,1.22.37,1.35,1.12l.33,1.84-.82.15-.3-1.66c-.08-.46-.23-.81-.71-.72Z"></path>
      <path class="cls-2" d="M273.13,59.89c.17-.03.29-.1.29-.1l.16.63s-.26.15-.61.22c-.63.11-.95-.13-1.09-.93l-.26-1.43-.46.08-.11-.63.46-.08-.16-.88.81-.15.16.88.72-.13.11.63-.72.13.23,1.25c.09.47.19.57.48.52Z"></path>
      <path class="cls-2" d="M273.25,56.33c-.05-.26.12-.49.41-.54s.53.1.57.37-.12.49-.41.54-.53-.1-.57-.37ZM274.32,57.12l.56,3.1-.82.15-.56-3.1.82-.15Z"></path>
      <path class="cls-2" d="M277.07,59.24c.42-.08.75-.33.88-.48l.4.38c-.14.21-.55.61-1.3.75-.93.17-1.73-.28-1.91-1.27s.42-1.79,1.31-1.95c.95-.17,1.64.35,1.79,1.18.03.16.06.42.06.42l-2.28.41c.17.48.59.65,1.05.56ZM275.9,58.15l1.48-.27c-.07-.34-.27-.7-.85-.6-.49.09-.68.47-.64.87Z"></path>
      <path class="cls-2" d="M279.65,56.73c-.27.05-.38.18-.36.32.02.13.15.22.51.27l.23.03c.72.1,1.01.3,1.09.75.11.59-.28,1.11-1.04,1.25-.47.09-1.04-.01-1.34-.25l.23-.62c.42.22.75.3,1.02.25.31-.06.43-.2.39-.38-.03-.16-.17-.23-.59-.29l-.38-.06c-.49-.07-.77-.3-.86-.76-.1-.56.34-1.02.94-1.13.55-.1.88,0,1.17.13l-.25.61c-.2-.1-.49-.18-.77-.13Z"></path>
      <path class="cls-2" d="M283.76,54.05c.36-.06.7-.09,1.01,0,.38.1.65.33.74.84.1.54-.24.92-.51,1.09h0c.59.04,1.04.34,1.14.9.09.48-.08.87-.34,1.11-.24.22-.62.36-1.04.44l-1.61.29-.8-4.41,1.41-.26ZM284.53,55.7c.14-.12.2-.29.15-.56-.07-.38-.4-.52-.83-.44l-.56.1.21,1.19.52-.09c.23-.04.39-.1.5-.2ZM285.14,57.56c.13-.12.19-.34.15-.57-.04-.24-.18-.39-.37-.47-.19-.09-.36-.08-.62-.03l-.68.12.24,1.31.72-.13c.21-.04.41-.08.57-.23Z"></path>
      <path class="cls-2" d="M287.81,57.95c-.6.11-1.15-.13-1.26-.78s.47-1.01,1.1-1.17l.73-.19v-.08c-.09-.4-.38-.53-.81-.46s-.72.29-.84.42l-.34-.48c.21-.18.61-.45,1.15-.54s.89-.02,1.16.16c.26.18.43.44.52.96l.32,1.77-.79.14-.08-.36c-.09.25-.41.52-.87.6ZM287.37,57c.05.26.28.41.62.34.32-.06.52-.29.6-.46l-.1-.57-.55.13c-.43.1-.62.29-.57.55Z"></path>
      <path class="cls-2" d="M291.28,54.69c-.51.09-.6.54-.51,1.06l.28,1.54-.82.15-.56-3.1.82-.15.08.47h.02c.11-.36.39-.61.83-.7.89-.16,1.22.37,1.35,1.12l.33,1.84-.82.15-.3-1.66c-.08-.46-.23-.81-.71-.72Z"></path>
      <path class="cls-2" d="M294.45,55.58l.19,1.07-.81.15-.8-4.41.81-.15.46,2.53.9-1.41.9-.16-.93,1.38,1.65,1.69-.95.17-1.16-1.25-.26.4Z"></path>
    </g>
    <g>
      <path class="cls-3" d="M261.05,68.44l-.51.09-.13-.7,1.34-.24.65,3.59-.83.15-.52-2.89Z"></path>
      <path class="cls-3" d="M263.72,70.93l.74-1.35c-.12.06-.23.1-.35.12-.39.07-.73,0-.96-.17-.23-.16-.4-.42-.47-.81-.1-.53.09-.87.18-1,.28-.43.77-.56,1.05-.61.57-.1.92.03,1.14.17.21.13.45.4.53.84.04.23.03.5-.03.76-.06.22-.17.49-.3.74l-.62,1.23-.9.07ZM263.62,68.03c-.06.08-.15.24-.11.49.04.23.15.36.27.43.13.08.3.1.46.07.18-.03.32-.12.41-.23.07-.1.14-.26.1-.51-.03-.17-.11-.3-.26-.4-.1-.07-.26-.12-.47-.08-.17.03-.31.12-.4.24Z"></path>
      <path class="cls-3" d="M267.44,67.28l-1.58.29-.13-.7,2.85-.52-1.46,4.06-.8-.05,1.12-3.08Z"></path>
      <path class="cls-3" d="M271.09,66.63l-1.21.22v.5c.08-.03.19-.06.28-.08.4-.07.74.02.98.18.19.13.41.38.49.81.08.46-.06.8-.2.99-.27.38-.65.51-1.02.57-.34.06-.75.09-1.27-.18l.05-.8c.12.09.27.18.4.23.17.07.36.1.57.06.19-.03.37-.11.49-.24.1-.11.17-.28.13-.49s-.16-.33-.26-.39c-.05-.03-.25-.15-.63-.08-.3.05-.54.19-.7.32l.02-2.01,1.77-.32.13.7Z"></path>
      <path class="cls-3" d="M273.7,66.68c.33-.06.63.15.69.48s-.15.63-.48.69-.63-.15-.69-.48.15-.63.48-.69Z"></path>
      <path class="cls-3" d="M278.95,68.19l-2.75.5.87-1.37c.15-.24.37-.65.46-.84.06-.14.15-.4.11-.65-.02-.13-.1-.26-.2-.33-.08-.05-.21-.07-.35-.04-.16.03-.25.1-.31.19-.08.13-.1.33-.07.47l-.83.15c-.03-.32.03-.69.21-.97.14-.21.41-.46.92-.55s.84.07.99.17c.23.16.42.43.49.8.06.32,0,.57-.13.84-.12.24-.27.46-.46.72l-.31.43,1.24-.22.13.7Z"></path>
      <path class="cls-3" d="M281.83,67.37c-.17.24-.46.47-.9.55s-.77-.03-1.02-.2c-.41-.28-.68-.8-.79-1.41s-.04-1.2.24-1.6c.18-.25.46-.47.89-.54s.78.03,1.03.2c.41.28.68.8.79,1.41s.04,1.19-.25,1.6ZM280.08,65.07c-.22.31-.16.83-.12,1.08.05.28.19.78.49.98.11.07.22.1.36.07s.23-.09.31-.19c.21-.29.17-.81.11-1.09-.05-.25-.18-.76-.49-.97-.11-.07-.22-.1-.36-.07s-.23.09-.31.19Z"></path>
      <path class="cls-3" d="M285.36,67.04l-2.75.5.87-1.37c.15-.24.37-.65.46-.84.06-.14.15-.4.11-.65-.02-.13-.1-.26-.2-.33-.08-.05-.21-.07-.35-.04-.16.03-.25.1-.31.19-.08.13-.1.33-.07.47l-.83.15c-.03-.32.03-.69.21-.97.14-.21.41-.46.92-.55s.84.07.99.17c.23.16.42.43.49.8.06.32,0,.57-.13.84-.12.24-.27.46-.46.72l-.31.43,1.24-.22.13.7Z"></path>
      <path class="cls-3" d="M287.85,63.6l-1.21.22v.5c.08-.03.19-.06.28-.08.4-.07.74.02.98.18.19.13.41.38.49.81.08.46-.06.8-.2.99-.27.38-.65.51-1.02.57-.34.06-.75.09-1.27-.18l.05-.8c.12.09.27.18.4.23.17.07.36.1.57.06.19-.03.37-.11.49-.24.1-.11.17-.28.13-.49s-.16-.33-.26-.39c-.05-.03-.25-.15-.63-.08-.3.05-.54.19-.7.32l.02-2.01,1.77-.32.13.7Z"></path>
    </g>
    <polygon class="cls-4" points="244.88 65.03 236.77 66.49 242.79 70.67 238.61 76.7 254.01 73.92 254.84 67.45 244.33 69.34 244.88 65.03"></polygon>
  </g>
</svg>
